<svg xmlns="http://www.w3.org/2000/svg" xmlns:xlink="http://www.w3.org/1999/xlink" width="1024" zoomAndPan="magnify" viewBox="0 0 768 583.92" height="768" preserveAspectRatio="xMidYMid meet" version="1.0"><defs><clipPath id="5d19e60cd8"><path d="M 104.558594 131.277344 L 372.566406 131.277344 L 372.566406 223.074219 L 104.558594 223.074219 Z M 104.558594 131.277344 " clip-rule="nonzero"/></clipPath><clipPath id="a037639da6"><path d="M 0.558594 0.277344 L 268.566406 0.277344 L 268.566406 92.074219 L 0.558594 92.074219 Z M 0.558594 0.277344 " clip-rule="nonzero"/></clipPath><clipPath id="afc6d8d6dd"><rect x="0" width="269" y="0" height="93"/></clipPath><clipPath id="79a20416f1"><path d="M 104.558594 244.820312 L 518.328125 244.820312 L 518.328125 336.621094 L 104.558594 336.621094 Z M 104.558594 244.820312 " clip-rule="nonzero"/></clipPath><clipPath id="b3254d8810"><path d="M 0.558594 0.820312 L 414.328125 0.820312 L 414.328125 92.621094 L 0.558594 92.621094 Z M 0.558594 0.820312 " clip-rule="nonzero"/></clipPath><clipPath id="f59a2a1c01"><rect x="0" width="415" y="0" height="93"/></clipPath><clipPath id="6979b8c6ab"><path d="M 104.558594 358.039062 L 348.59375 358.039062 L 348.59375 449.835938 L 104.558594 449.835938 Z M 104.558594 358.039062 " clip-rule="nonzero"/></clipPath><clipPath id="2b20a8db2f"><path d="M 0.558594 0.0390625 L 244.59375 0.0390625 L 244.59375 91.835938 L 0.558594 91.835938 Z M 0.558594 0.0390625 " clip-rule="nonzero"/></clipPath><clipPath id="f58c7b13a4"><rect x="0" width="245" y="0" height="92"/></clipPath></defs><g clip-path="url(#5d19e60cd8)"><g transform="matrix(1, 0, 0, 1, 104, 131)"><g clip-path="url(#afc6d8d6dd)"><g clip-path="url(#a037639da6)"><path fill="#47423c" d="M 0.558594 0.277344 L 268.417969 0.277344 L 268.417969 92.074219 L 0.558594 92.074219 Z M 0.558594 0.277344 " fill-opacity="1" fill-rule="nonzero"/></g></g></g></g><g clip-path="url(#79a20416f1)"><g transform="matrix(1, 0, 0, 1, 104, 244)"><g clip-path="url(#f59a2a1c01)"><g clip-path="url(#b3254d8810)"><path fill="#fdfdfd" d="M 0.558594 0.820312 L 414.363281 0.820312 L 414.363281 92.621094 L 0.558594 92.621094 Z M 0.558594 0.820312 " fill-opacity="1" fill-rule="nonzero"/></g></g></g></g><g clip-path="url(#6979b8c6ab)"><g transform="matrix(1, 0, 0, 1, 104, 358)"><g clip-path="url(#f58c7b13a4)"><g clip-path="url(#2b20a8db2f)"><path fill="#d4c386" d="M 0.558594 0.0390625 L 244.753906 0.0390625 L 244.753906 91.835938 L 0.558594 91.835938 Z M 0.558594 0.0390625 " fill-opacity="1" fill-rule="nonzero"/></g></g></g></g></svg>